<svg xmlns="http://www.w3.org/2000/svg" viewBox="0 0 27 66" width="27" height="66">
	<style>
		tspan { white-space:pre }
		.shp0 { fill: #ffe74f } 
	</style>
	<g id="ОТЗЫВЫ ">
		<g id="Стрелка вправо">
			<path id="Прямоугольник, скругл. углы 5" class="shp0" d="M3.75 2.61C5.42 1.65 8.01 3 9.53 5.63L23.53 29.87C25.05 32.5 24.92 35.42 23.25 36.39C21.58 37.35 18.99 36 17.47 33.37L3.47 9.13C1.95 6.5 2.08 3.58 3.75 2.61Z" />
			<path id="Прямоугольник, скругл. углы 5 копия" class="shp0" d="M23.67 30.3C22.01 29.34 19.44 30.67 17.94 33.28L4.05 57.26C2.55 59.86 2.67 62.75 4.33 63.7C5.99 64.66 8.56 63.32 10.06 60.72L23.95 36.74C25.45 34.14 25.33 31.25 23.67 30.3Z" />
		</g>
	</g>
</svg>