<svg xmlns="http://www.w3.org/2000/svg" viewBox="0 0 79 20" width="79" height="20">
	<style>
		tspan { white-space:pre }
		.shp0 { fill: #ffe74f } 
		.shp1 { fill: #ffe74f;stroke: #333333;stroke-width: 3 } 
	</style>
	<path id="Эллипс 3" class="shp0" d="M69.5 1C74.19 1 78 4.81 78 9.5C78 14.19 74.19 18 69.5 18C64.81 18 61 14.19 61 9.5C61 4.81 64.81 1 69.5 1Z" />
	<path id="Эллипс 3 копия" class="shp1" d="M39.5 1C44.19 1 48 4.81 48 9.5C48 14.19 44.19 18 39.5 18C34.81 18 31 14.19 31 9.5C31 4.81 34.81 1 39.5 1Z" />
	<path id="Эллипс 3 копия 2" class="shp1" d="M9.5 1C14.19 1 18 4.81 18 9.5C18 14.19 14.19 18 9.5 18C4.81 18 1 14.19 1 9.5C1 4.81 4.81 1 9.5 1Z" />
</svg>